<svg xmlns="http://www.w3.org/2000/svg" viewBox="0 0 420 200" width="420" height="200" role="img" aria-label="Face pull en polea: inicio con brazos estirados hacia la polea a la altura del pecho; final con manos junto a la cara y codos a la altura de los hombros, no por encima">
<g><line x1="15" y1="184" x2="195" y2="184" stroke="#6b7280" stroke-width="2"/><rect x="184" y="20" width="10" height="164" rx="3" fill="#6b7280"/><circle cx="182" cy="58" r="6" fill="#6b7280"/><path d="M78,182 L80,110" fill="none" stroke="#1f2937" stroke-width="15" stroke-linecap="round" stroke-linejoin="round"/><path d="M78,182 L80,110" fill="none" stroke="#e5e7eb" stroke-width="11" stroke-linecap="round" stroke-linejoin="round"/><path d="M80,110 L80,56" fill="none" stroke="#1f2937" stroke-width="21" stroke-linecap="round" stroke-linejoin="round"/><path d="M80,110 L80,56" fill="none" stroke="#e5e7eb" stroke-width="17" stroke-linecap="round" stroke-linejoin="round"/><circle cx="82" cy="32" r="13" fill="#e5e7eb" stroke="#1f2937" stroke-width="3"/><line x1="134" y1="62" x2="182" y2="58" stroke="#6b7280" stroke-width="2.5" stroke-linecap="round"/><path d="M80,60 L108,62 L134,62" fill="none" stroke="#1f2937" stroke-width="12" stroke-linecap="round" stroke-linejoin="round"/><path d="M80,60 L108,62 L134,62" fill="none" stroke="#e5e7eb" stroke-width="8" stroke-linecap="round" stroke-linejoin="round"/><line x1="134" y1="54" x2="134" y2="70" stroke="#1f2937" stroke-width="9" stroke-linecap="round"/><line x1="134" y1="54" x2="134" y2="70" stroke="#9ca3af" stroke-width="4" stroke-linecap="round"/></g>
<g transform="translate(220,0)"><line x1="15" y1="184" x2="195" y2="184" stroke="#6b7280" stroke-width="2"/><rect x="184" y="20" width="10" height="164" rx="3" fill="#6b7280"/><circle cx="182" cy="58" r="6" fill="#6b7280"/><path d="M78,182 L80,110" fill="none" stroke="#1f2937" stroke-width="15" stroke-linecap="round" stroke-linejoin="round"/><path d="M78,182 L80,110" fill="none" stroke="#e5e7eb" stroke-width="11" stroke-linecap="round" stroke-linejoin="round"/><path d="M80,110 L80,56" fill="none" stroke="#1f2937" stroke-width="21" stroke-linecap="round" stroke-linejoin="round"/><path d="M80,110 L80,56" fill="none" stroke="#e5e7eb" stroke-width="17" stroke-linecap="round" stroke-linejoin="round"/><circle cx="82" cy="32" r="13" fill="#e5e7eb" stroke="#1f2937" stroke-width="3"/><line x1="92" y1="50" x2="182" y2="58" stroke="#6b7280" stroke-width="2.5" stroke-linecap="round"/><path d="M80,60 L60,64 L92,50" fill="none" stroke="#1f2937" stroke-width="12" stroke-linecap="round" stroke-linejoin="round"/><path d="M80,60 L60,64 L92,50" fill="none" stroke="#e5e7eb" stroke-width="8" stroke-linecap="round" stroke-linejoin="round"/><line x1="92" y1="42" x2="92" y2="58" stroke="#1f2937" stroke-width="9" stroke-linecap="round"/><line x1="92" y1="42" x2="92" y2="58" stroke="#9ca3af" stroke-width="4" stroke-linecap="round"/></g>
<path d="M350,40 L318,40" stroke="#2563eb" stroke-width="4" stroke-linecap="round"/><path d="M327.1,33.8 L318,40 L327.1,46.2" fill="none" stroke="#2563eb" stroke-width="4" stroke-linecap="round" stroke-linejoin="round"/>
</svg>